<svg xmlns="http://www.w3.org/2000/svg" version="1.1" xmlns:xlink="http://www.w3.org/1999/xlink" viewBox="0 0 200 200"><rect width="200" height="200" fill="url('#gradient')"></rect><defs><linearGradient id="gradient" gradientTransform="rotate(299 0.5 0.5)"><stop offset="0%" stop-color="#000000"></stop><stop offset="100%" stop-color="#8c8c8c"></stop></linearGradient></defs><g><g fill="#ffffff" transform="matrix(9.603261977573904,0,0,9.603261977573904,-18.598917415066722,150.99581650627982)" stroke="#2dbeef" stroke-width="0.9"><path d="M6.14-10.57L9.44-10.57L9.44 0.36Q9.43 2.24 8.37 3.25Q7.30 4.27 5.40 4.27L5.40 4.27Q4.58 4.27 3.85 4.10L3.85 4.10L3.85 1.61Q4.41 1.70 4.78 1.70L4.78 1.70Q6.14 1.70 6.14 0.34L6.14 0.34L6.14-10.57ZM5.90-13.29L5.90-13.29Q5.90-13.99 6.41-14.44Q6.91-14.89 7.72-14.89Q8.54-14.89 9.04-14.44Q9.55-13.99 9.55-13.29Q9.55-12.59 9.04-12.14Q8.54-11.69 7.72-11.69Q6.91-11.69 6.41-12.14Q5.90-12.59 5.90-13.29ZM14.88-14.22L14.88-2.64L20.85-2.64L20.85 0L11.46 0L11.46-14.22L14.88-14.22Z"></path></g></g></svg>